<svg width="191" height="86" viewBox="0 0 191 86" fill="none" xmlns="http://www.w3.org/2000/svg">
<path d="M32.512 14.936H38.336L31.936 55H23.936L19.456 24.92L15.04 55H7.04L0.64 14.936H6.592L11.072 49.752L16.256 14.936H22.656L27.84 49.752L32.512 14.936ZM48.152 50.328H59.736V55H42.328V14.936H59.288V19.608H48.152V31.96H57.368V36.632H48.152V50.328ZM78.3455 30.488V21.336C78.3455 20.568 78.2175 20.0773 77.9615 19.864C77.7055 19.608 77.1935 19.48 76.4255 19.48H70.0255V32.344H76.4255C77.1935 32.344 77.7055 32.2373 77.9615 32.024C78.2175 31.768 78.3455 31.256 78.3455 30.488ZM78.3455 48.6V38.744C78.3455 37.976 78.2175 37.4853 77.9615 37.272C77.7055 37.016 77.1935 36.888 76.4255 36.888H70.0255V50.456H76.4255C77.1935 50.456 77.7055 50.3493 77.9615 50.136C78.2175 49.88 78.3455 49.368 78.3455 48.6ZM64.2655 14.936H78.1535C82.1642 14.936 84.1695 16.8133 84.1695 20.568V30.744C84.1695 33.0053 83.3162 34.328 81.6095 34.712C83.3162 35.1387 84.1695 36.376 84.1695 38.424V49.368C84.1695 53.1227 82.1642 55 78.1535 55H64.2655V14.936ZM90.965 14.936H96.725V55H90.965V14.936ZM109.587 14.936H116.691C120.659 14.936 122.643 16.8133 122.643 20.568V49.368C122.643 53.1227 120.659 55 116.691 55H109.587C105.576 55 103.571 53.1227 103.571 49.368V20.568C103.571 16.8133 105.576 14.936 109.587 14.936ZM116.883 48.472V21.464C116.883 20.696 116.755 20.2053 116.499 19.992C116.243 19.736 115.731 19.608 114.963 19.608H111.251C110.483 19.608 109.971 19.736 109.715 19.992C109.501 20.2053 109.395 20.696 109.395 21.464V48.472C109.395 49.24 109.501 49.752 109.715 50.008C109.971 50.2213 110.483 50.328 111.251 50.328H114.963C115.731 50.328 116.243 50.2213 116.499 50.008C116.755 49.752 116.883 49.24 116.883 48.472ZM143.288 14.936H148.6V55H142.776L134.328 26.072V55H129.016V14.936H135.095L143.288 43.032V14.936Z" fill="#3E404C"/>
<path d="M159.056 37.396H160.316C162.5 37.396 163.592 38.464 163.592 40.6V51.832C163.592 53.944 162.5 55 160.316 55H159.056C157.88 55 157.136 54.532 156.824 53.596V55H153.584V30.916H156.824V38.8C157.136 37.864 157.88 37.396 159.056 37.396ZM160.352 51.328V41.068C160.352 40.66 160.28 40.384 160.136 40.24C159.992 40.096 159.704 40.024 159.272 40.024H158.012C157.58 40.024 157.268 40.12 157.076 40.312C156.908 40.504 156.824 40.828 156.824 41.284V51.112C156.824 51.568 156.908 51.892 157.076 52.084C157.268 52.276 157.58 52.372 158.012 52.372H159.272C159.704 52.372 159.992 52.312 160.136 52.192C160.28 52.048 160.352 51.76 160.352 51.328ZM169.689 37.432H173.541C175.773 37.432 176.889 38.5 176.889 40.636V51.832C176.889 53.944 175.773 55 173.541 55H169.689C167.481 55 166.377 53.944 166.377 51.832V40.636C166.377 38.5 167.481 37.432 169.689 37.432ZM173.685 51.364V41.068C173.685 40.636 173.613 40.348 173.469 40.204C173.325 40.06 173.037 39.988 172.605 39.988H170.625C170.193 39.988 169.905 40.06 169.761 40.204C169.641 40.348 169.581 40.636 169.581 41.068V51.364C169.581 51.796 169.641 52.084 169.761 52.228C169.905 52.372 170.193 52.444 170.625 52.444H172.605C173.037 52.444 173.325 52.372 173.469 52.228C173.613 52.084 173.685 51.796 173.685 51.364ZM186.073 46L190.465 55H187.045L184.417 48.916L181.861 55H178.477L182.797 46.036L178.729 37.432H182.185L184.453 43.192L186.685 37.432H190.069L186.073 46Z" fill="#3E404C"/>
</svg>
